<?xml version="1.0" encoding="utf-8" ?>
<svg xmlns="http://www.w3.org/2000/svg" xmlns:xlink="http://www.w3.org/1999/xlink" width="256" height="256">
	<path fill="#DBDBDB" transform="scale(0.25 0.25)" d="M526.981 78.292C552.302 76.1031 578.96 84.1884 598.75 100.244C604.656 105.035 609.704 110.679 614.537 116.512C617.354 119.912 619.983 123.287 622.178 127.128C623.114 128.765 624.63 133.191 625.824 134.266C626.194 134.599 627.781 134.611 628.288 134.659C631.995 135.013 635.82 135.208 639.489 135.831C645.501 136.852 652.998 139.894 658.336 142.785C670.646 149.453 680.158 159.951 684.097 173.612C686.529 182.047 685.089 190.135 686.16 198.612C686.789 203.592 689.003 208.256 689.825 213.223C690.361 216.464 691.142 219.086 691.014 222.425C690.941 224.34 690.076 226.369 690.764 228.213L694.391 237.941L694.652 238.88C696.51 244.969 696.333 253.322 694.297 259.318L694.057 260C693.344 262.167 692.558 264.168 691.625 266.253C691.408 266.739 690.453 268.382 690.453 268.85C690.452 269.296 691.716 271.261 691.966 271.757C693.003 273.805 693.492 275.769 694.287 277.892C697.085 285.371 696.05 293.291 695.018 301C693.925 309.171 692.319 317.939 689.292 325.645C687.811 329.415 684.808 332.69 684.428 336.843L684.377 337.5C682.957 353.311 685.404 369.082 680.952 384.596C674.283 407.836 659.828 424.156 638.818 435.777L655.012 447.614L674.454 463.809C693.316 480.537 710.312 499.253 727.562 517.592L748.706 539.15L687.072 590.421C690.356 593.126 695.466 594.659 699.417 596.161C710.391 600.333 722.136 604.878 733.831 606.402C740.968 607.332 748.811 606.468 755.746 608.339C763.08 610.317 769.911 614.365 777.071 616.965C794.28 623.215 812.304 627.94 829 635.43C841.525 641.05 853.226 648.579 864.987 655.603C871.469 659.475 879.263 662.992 884.845 668.116C890.243 673.072 893.492 680.499 894.663 687.659C895.145 690.602 895.314 693.942 896.261 696.753L904.909 720.316C907.619 728.977 909.119 738.72 909.389 747.809C909.545 753.069 908.881 758.241 908.259 763.447C906.636 777.041 903.444 789.895 899.09 802.857C897.535 807.49 894.209 812.545 893.551 817.297C892.637 823.898 893.348 831.515 893.362 838.211L893.256 886.438C893.158 889.806 893.16 892.419 890.75 894.981C889.633 895.633 888.627 895.973 887.322 896.034C876.704 896.534 865.733 895.809 855.064 895.793L775.462 895.683L462.875 895.819L257.914 895.676L186.462 895.805L153.5 895.94C151.815 895.886 149.576 895.852 148.062 895.044C146.884 894.415 146.379 893.511 146.103 892.25C145.377 888.936 145.609 884.748 145.513 881.334C145.114 867.071 146.585 852.183 145.347 838.021C144.907 832.993 142.543 829.081 140.944 824.433C138.563 817.508 136.875 809.385 136.277 802.083C135.658 794.533 135.557 786.265 136.57 778.75C137.06 775.113 137.977 771.326 138.845 767.755C139.015 767.053 139.966 764.365 139.831 763.791C139.108 760.71 136.269 757.183 135.123 753.979C128.417 735.227 129.87 717.77 135.489 699C136.876 694.37 138.109 689.521 140.237 685.168C142.15 681.255 144.521 679.557 147.663 676.784C150.853 673.969 153.999 670.994 157.518 668.591C162.367 665.279 167.548 662.742 172.646 659.875C182.666 654.242 192.229 648.132 202.655 643.221C213.717 638.011 225.809 634.318 237.25 629.952L307.709 603.609L360.278 587.345C356.637 583.736 351.982 581.04 347.802 578.06C344.018 575.361 340.559 572.242 336.657 569.738C323.262 561.144 308.137 553.446 296.001 543.127C299.457 536.747 304.421 531.07 308.919 525.396L336.25 492.085L354.715 469.958C358.246 465.736 361.642 461.252 365.459 457.29L396.21 427.907C393.011 424.507 389.055 422.118 385.906 418.649C378.264 410.229 371.218 398.825 368.466 387.699C366.36 379.182 365.908 370.59 365.125 361.89L364.206 349.623C364.075 347.381 364.168 344.811 363.39 342.69C362.38 339.941 359.358 337.283 357.62 334.92C351.176 326.16 348.138 316.865 346.175 306.323L354.469 310.611C354.462 306.692 354.676 302.454 355.183 298.565C355.559 295.681 357.425 291.23 357.011 288.4C356.598 285.577 352.206 280.917 350.75 278.092C347.078 270.968 344.616 263.45 342.655 255.692L356.168 248.997C351.614 232.157 348.77 213.383 349.069 195.929C352.038 199.18 354.821 206.183 358.629 208.02C360.381 208.866 362.537 208.49 364.25 207.821C363.025 200.695 363.238 194.773 366.103 188.008C366.651 186.716 368.178 184.627 368.412 183.378C368.682 181.94 366.655 177.184 366.407 175.293C365.176 165.89 364.189 154.195 366.476 144.95C367.687 147.579 368.819 150.589 370.692 152.813C374.267 157.058 378.356 159.601 384 160.123C385.172 158.827 385.555 155.335 385.962 153.594C386.798 150.018 387.688 146.303 389.129 142.918C391.101 138.285 393.86 134.443 397.234 130.746C403.677 123.687 412.409 118.608 421.31 115.29C429.342 112.296 437.834 110.063 445.284 105.679C450.702 102.49 454.744 98.0787 459.452 94.0133C463.999 90.0866 470.751 85.7318 476.409 83.8043C481.332 82.1268 484.929 84.7017 489.592 84.3128C493.709 83.9696 498.024 82.519 502.094 81.6697C510.338 79.9492 518.564 78.7056 526.981 78.292ZM601.217 207.091C589.16 211.296 577.469 216.945 565.628 221.75L547.103 228.428C539.779 231.293 532.728 234.844 525.859 238.654C516.684 234.203 507.471 229.977 497.805 226.709C491.915 224.718 485.863 222.704 479.626 222.187C478.473 227.372 478.332 232.783 478.162 238.077C477.56 256.834 480.685 276.463 490.968 292.546C494.393 297.901 498.678 303.2 504.75 305.568L506.75 306.342C494.121 309.262 482.659 306.531 471.832 299.701C461.007 292.872 452.761 281.001 446.544 270.046L450.478 289.718C444.321 285.152 439.125 278.737 435.531 272C428.34 258.52 427.468 245.219 424.164 230.695C420.884 238.399 417.858 246.878 417.037 255.25C416.289 262.878 417.747 271.464 418.827 279.01L422.447 305.3C420.352 305.809 418.194 306.472 416.051 306.696C416.038 311.545 416.273 316.377 415.189 321.124C413.294 329.426 408.672 337.426 406.211 345.678C403.298 355.445 402.435 365.441 400.022 375.232L392.64 376.354C396.141 385.536 401.841 393.326 408.574 400.425L406.098 384.073C410.493 388.834 414.542 393.991 416.489 400.25C420.361 412.699 422.878 424.816 424.944 437.681C425.893 443.588 426.147 449.906 427.75 455.654C428.205 457.286 428.401 460.259 429.492 461.531C429.503 455.878 428.448 444.757 432.75 440.601C434.475 438.935 439.225 439.223 441.587 439.415C445.297 439.717 449.639 441.543 452.111 444.405C455.301 448.098 457.028 452.905 457.879 457.635C459.669 467.575 460.492 477.292 459.812 487.431C459.411 493.402 458.219 499.198 457.536 505.125C457.101 508.892 455.401 512.982 455.604 516.745C455.706 518.631 457.48 520.86 458.376 522.487L464.777 532.967L468.736 506.265C469.297 502.243 470.254 498.173 470.386 494.11L467.118 494.25C466.448 493.061 466.96 492.125 467.309 490.828L471.357 478.128C471.802 476.754 472.339 474.235 473.254 473.146C474.109 472.129 476.571 470.822 477.75 470.14C486.062 465.33 495.493 462.695 503.767 457.754C505.696 456.602 507.128 455.574 508.027 453.492C508.25 452.974 508.861 451.211 509.5 451.014C511.298 450.459 513.726 451.638 515.279 450.079C512.578 445.296 507.541 442.531 503.837 438.602C499.814 438.106 496.375 437.91 493.729 434.38C492.321 432.503 492.291 430.34 492.705 428.106C493.562 423.492 495.759 418.373 499 414.943C500.101 415.018 499.871 414.766 500.461 415.537C502.904 418.732 500.543 427.737 500.321 431.726C502.682 431.037 506.969 429.383 509.24 430.701C511.588 432.064 513.426 434.97 514.926 437.19L519.139 442.559C521.077 445.042 523.636 446.405 526.606 447.322C529.309 446.335 531.319 445.466 533.475 443.471C537.615 439.64 540.758 432.468 546.5 430.993L547.033 430.843C549.449 430.244 552.168 431.074 554.554 431.583C554.175 427.592 551.738 418.634 553.75 415.145L554.75 415.074C556.426 416.674 557.158 417.913 558.097 420C560.084 424.417 560.945 428.534 561.822 433.265C560.224 435.218 558.447 437.052 555.969 437.841C552.96 438.799 550.239 438.534 547.787 440.785C544.847 443.483 541.738 446.089 539.654 449.538L540 450.533C541.18 451.016 541.983 451.22 543.25 450.853L545.25 449.843C546.9 452.182 548.458 454.664 550.75 456.432C553.492 458.547 557.322 459.507 560.56 460.635C566.98 462.872 574.941 465.334 580.44 469.433C585.741 473.384 589.086 478.461 592.204 484.187C581.615 479.911 571.227 475.325 559.789 473.935C555.24 473.381 550.688 475.403 546.268 476.317C543.011 476.989 539.359 477.273 536.036 477.444C527.468 477.886 518.348 477.774 509.87 476.337C506.865 475.828 502.355 473.625 499.497 473.724C495.666 473.857 490.546 475.022 486.999 476.47C483.399 477.94 480.6 482.892 479.176 486.406C478.658 487.683 478.269 488.907 477.975 490.25L477.842 490.784C477.069 494.096 477.329 497.949 477.48 501.327C477.91 510.922 479.203 522.109 484.459 530.331C486.024 532.779 487.795 534.976 489.905 536.983L495.18 527.599C495.959 526.123 496.861 523.851 498.07 522.703C498.604 522.196 499.611 521.863 500.327 521.672C502.8 521.011 504.475 521.924 506.514 523.25L507.563 523.965C510.608 521.478 513.296 518.988 515.88 516.022L511.175 518.25C510.818 517.268 510.693 514.753 509.88 514.34C509.212 514.001 508.785 513.965 508.055 513.93C507.611 510.952 512.631 505.034 514.314 502.725C520.884 500.46 528.457 500.405 535.35 500.475C537.51 500.497 540.421 500.245 542.419 501.15C546.624 503.055 553.626 509.226 555.037 513.75L555.397 515.5C555.015 515.799 554.705 516.228 554.25 516.396C553.145 516.804 551.717 515.554 551.25 516.977C552.393 518.757 553.374 520.299 555.01 521.678C557.971 521.541 563.213 520.619 565.492 522.75C568.201 525.283 570.202 532.297 571.407 535.872C576.769 532.543 580.118 523.938 581.478 518C584.276 505.785 583.408 490.949 578.122 479.614C580.417 481.502 582.879 483.417 584.66 485.82C588.609 491.147 589.93 497.787 592.343 503.84L596.161 515.733C602.947 504.491 610.04 492.534 614.13 479.992C616.954 471.332 618.284 462.091 619.927 453.147C623.646 432.901 626.912 410.975 635.715 392.226C637.56 388.295 640.117 384.652 642.257 380.873C642.821 385.19 642.701 389.944 641.72 394.186L639.348 403.169C645.334 394.782 652.589 386.769 656.541 377.16L649.784 375.835L631.273 308.483L623.304 304.697C624.477 296.172 626.608 287.824 627.41 279.25C628.523 267.347 627.565 255.168 625.169 243.484C623.4 234.851 621.016 226.561 615.591 219.435C612.004 214.722 606.665 209.526 601.217 207.091ZM534.237 518.348C521.363 525.948 510.416 535.337 498.353 544.046C482.778 555.291 465.948 565.006 452.421 578.858C449.234 582.122 447.246 585.347 445.508 589.572C446.315 598.533 449.289 606.974 451.027 615.75L454.213 635.523L461.044 673.25L467.019 708C467.552 710.598 467.504 713.604 468.308 716.1C468.565 716.897 468.868 717.24 469.512 717.745C472.435 720.034 476.658 720.643 480.034 722.132C492.336 727.557 503.647 734.556 514.398 742.567C519.37 746.272 523.974 750.497 529.248 753.762L533.512 736.465C525.46 734.95 518.859 733.038 511.232 730.154L511.742 730.05L524.383 726.409C530.395 724.36 536.951 720.511 539.734 714.541C542.132 709.396 542.687 703.768 542.374 698.169C541.987 691.257 540.205 684.22 538.669 677.486L532.739 651.555C530.611 642.349 529.494 632.736 526.098 623.885C524.493 619.702 521.308 616.286 519.814 612.214C518.946 609.847 519.005 606.913 519.038 604.42C509.608 599.02 500.425 593.718 492.834 585.819C496.355 586.193 499.862 586.546 503.32 587.337L533.497 595.6C535.021 595.989 539.067 597.457 540.417 597.134C541.026 596.988 542.627 595.49 543.191 595.072L551.841 588.849C552.114 596.028 553.572 603.031 556.072 609.75L556.75 611.279C558.8 611.67 560.894 612.007 562.852 612.75C564.034 617.372 559.715 626.41 557.381 630.462C556.411 632.146 554.626 633.836 554.076 635.66L554.252 636.068C555.554 639.209 555.835 642.421 556.256 645.75C556.704 649.281 557.383 652.664 557.495 656.25C557.619 660.243 557.403 664.003 558.215 667.947L564.132 668.685C566.652 660.138 567.451 650.993 568.773 642.187C570.02 633.881 571.923 625.461 573.943 617.309C575.52 610.945 577.127 604.344 579.695 598.303C574.452 591.073 568.208 586.116 562.053 579.808C556.311 573.922 550.982 567.197 544.546 562.054L500.502 569.191C498.564 569.493 492.059 570.169 490.286 569.493C489.12 569.049 487.376 567.452 486.331 566.676L479.556 561.152C491.233 559.884 502.644 557.79 514.091 555.18C519.469 553.954 525.611 552.852 530.714 550.792L535.492 540.168C540.905 543.676 547.123 547.118 551.801 551.55C554.17 553.795 556.109 556.476 558.223 558.955L569.629 572.372L579.149 583.885C582.102 587.462 585.166 590.734 587.155 594.979L587.415 595.485C589.032 598.881 587.937 604.457 586.992 608C583.231 622.101 580.755 637.072 581.617 651.682C585.656 650.731 591.979 649.047 595.101 646.344C593.714 634.377 590.707 620.906 593.25 608.96L595.035 600.401C595.207 599.627 595.91 597.568 595.796 596.82C595.201 592.929 591.032 588.211 589.04 584.834C581.402 571.889 574.14 558.515 565.753 546.046C562.498 541.207 559.21 535.566 554.742 531.745C551.574 529.035 547.688 526.856 544.218 524.533C541.032 522.399 537.749 519.909 534.237 518.348ZM214.824 654.25L206.749 657.706L179.636 671.734C173.408 675.248 166.978 678.878 161.647 683.68C166.891 683.049 171.842 681.696 177 680.652L195.681 677.835C213.181 675.942 231.211 678.221 248.093 682.91L285.934 695.228C288.845 696.143 310.11 703.07 311.298 702.07C304.947 697.477 297.588 694.11 290.477 690.865C278.677 685.479 266.549 680.496 254.146 676.66C239.582 672.156 224.604 668.773 210.236 663.643C212.16 663.462 213.979 663.31 215.834 662.75L215.755 660.75C217.537 659.075 217.742 658.444 220.25 658.255C220.49 658.495 221.689 659.523 221.745 659.75C222.219 661.663 221.084 662.051 223.75 662.255C226.511 662.466 230.625 660.672 233 662.255C234.258 662.255 234.402 662.129 235.5 662.755C236.293 663.207 237.128 663.316 237.998 663.503L238.542 663.644C240.268 663.992 243.346 663.191 244.75 663.755C245.848 664.196 247.405 665.802 248.474 666.5L248.551 667.374C252.025 669.25 256.584 669.919 260.401 670.986L274.607 675.553L304.545 685.912C319.15 691.721 333.517 698.745 347.337 706.229L386 727.481L400.5 735.478C404.371 737.637 408.206 740.013 412.491 741.24C405.683 734.229 395.544 729.217 387.284 723.933C372.136 714.243 356.627 704.215 340.804 695.673C318.342 683.546 293.948 673.375 269.266 666.797L233.028 658.909C228.702 658.002 224.252 657.593 220.029 656.225C218.889 655.856 216.25 655.529 216.25 654.372C215.424 654.028 215.893 654.115 214.824 654.25ZM439.472 448.25C438.232 453.593 439.167 459.005 439.316 464.416C439.416 468.067 438.994 471.686 438.213 475.247C437.561 478.223 437.442 481.324 436.75 484.327C434.593 493.689 432.168 503.778 431.671 513.388C431.22 522.122 432.524 530.171 433.312 538.797L434.179 554L435.702 567.243C437.384 567.941 439.167 568.564 440.673 569.597C439.416 573.966 437.233 577.572 434.857 581.415C433.809 583.109 431.164 586.327 430.921 588.151C430.803 589.043 432.688 593.226 433.051 594.227C435.481 600.934 437.533 607.412 440.616 613.886L439.415 606.8C437.655 600.171 435.345 593.164 437.301 586.33L437.457 585.757C440.002 577.092 449.896 568.231 456.683 562.547C455.797 553.644 453.945 545.778 451.08 537.308C449.497 532.629 447.431 527.842 446.452 523L446.315 522.364C445.208 516.739 446.344 510.212 447.715 504.723C450.963 491.72 452.586 477.789 450.503 464.5C449.92 460.782 449.064 456.481 447.018 453.25C445.756 451.258 443.838 448.793 441.431 448.276C440.656 448.11 440.27 448.135 439.472 448.25ZM463.793 195.59L465 195.62C465.495 196.297 465.34 197.945 465.128 198.75C464.98 199.309 464.584 199.831 464.298 200.325C463.915 200.985 464.059 201.29 464.015 202L463.755 203.75L463.345 206.26C463.088 208.024 463.124 212.368 464.25 213.745C465.806 214.496 465.285 215.476 466.893 216.082L467.762 216.248C471.606 200.199 478.768 181.848 491.92 171.215C501.289 163.641 512.428 160.339 524.411 161.75C537.796 163.328 548.101 175.774 555.951 185.617C555.546 182.803 553.127 178.876 551.856 176.324C546.891 166.358 538.065 156.794 527.317 153.25C514.779 149.116 500.691 152.858 489.25 158.505C481.242 162.458 473.109 168.483 467.54 175.515C453.259 193.55 445.645 216.105 448.087 239.07C448.472 242.691 449.477 246.161 450.297 249.702C450.898 248.925 452.205 235.787 452.853 233.191C454.322 249.756 456.021 264.945 464.325 279.763L460.519 261C458.263 247.721 456.508 233.733 457.843 220.265C458.689 211.725 460.885 203.634 463.793 195.59ZM501.627 106.202C495.326 106.776 488.747 107.236 482.565 108.607C471.171 111.135 460.121 116.201 449.411 120.763C445.991 122.22 441.11 123.55 438.245 125.75C437.964 126.599 437.995 126.235 438 126.819C439.974 127.546 442.019 127.217 444.083 127.075C454.281 126.37 463.744 122.762 473.5 120.002C478.361 118.627 483.514 117.392 488.5 116.552C495.62 115.351 503.836 115.014 511 115.825C527.468 117.69 543.887 125.433 555.128 137.743C565.126 148.736 570.929 161.663 574.358 176C574.891 178.229 575.834 180.335 576.192 182.608C576.501 184.569 577.367 186.634 578.222 188.424C578.648 184.796 579.489 181.271 579.647 177.605C580.319 162.047 575.763 144.426 565.953 132.148C554.943 118.368 539.318 108.554 521.602 106.596C515.469 105.918 507.733 105.397 501.627 106.202ZM202.262 685.184C199.834 685.53 195.747 685.6 193.75 686.956L193.618 687.928C195.463 689.081 198.529 689.218 200.667 689.618C208.437 691.07 215.77 693.801 223.192 696.434L236.785 701.027C241.203 702.705 245.621 704.443 249.796 706.671C253.671 708.738 257.855 712.422 262.025 713.535C268.225 715.189 274.781 715.244 281.094 716.236L309.298 721.717C331.473 726.342 353.328 733.297 375.609 737.368L383.743 738.932C379.762 735.624 372.839 733.778 368 731.975C334.209 719.382 299.187 712.274 264.8 701.75C248.76 696.841 233.218 689.815 216.886 685.904C212.595 684.877 207.814 684.657 203.428 685.056L202.262 685.184ZM394.861 835.75L386.59 850.311L411.628 869.258C414.589 871.64 422.428 880.145 425.429 880.967C426.938 881.381 430.726 880.672 432.429 880.631L452.875 880.526L462.239 880.536C457.342 876.817 396.997 835.645 394.861 835.75ZM689.21 607.866L700.474 628.621C702.085 631.791 703.117 634.571 705.185 637.578C718.088 634.873 731.367 633.073 744.558 632.811L727.732 643.213C735.718 641.443 744.692 641.469 752.426 639.048L775.751 631.713C770.45 629.914 764.895 627.749 759.805 625.413C757.361 624.292 754.641 622.303 752.075 621.644C749.486 620.979 746.435 621.205 743.75 620.98L728.674 619.25C715.194 617.097 702.131 612.106 689.21 607.866ZM414.917 803.25L411.538 809.886C421.794 814.8 431.183 820.22 440.182 827.246L455.39 839.694C457.591 841.527 460.129 844.28 462.727 845.44C466.688 847.209 472.143 847.762 476.421 848.563L498.274 852.75L500 852.854C500.656 851.776 500.786 850.719 500.99 849.5C498.217 845.288 492.146 842.137 487.974 839.339C474.88 830.556 461.513 822.213 446.983 815.948C436.556 811.452 425.841 808.262 415.667 803.163L414.917 803.25ZM363.024 279.198C364.095 281.547 365.049 284.344 366.45 286.5C368.684 289.936 372.46 292.414 375.96 294.383L371.627 294.75L371.745 295.75L371.25 296.539C375.649 300.278 383.694 300.613 389.25 301.266C386.098 302.939 371.81 301.372 367.689 301.218C368.984 302.862 370.351 304.79 372.005 306.08C375.09 308.485 379.627 310.057 383.243 311.485C379.33 311.477 375.362 311.614 371.5 310.909C370.605 311.906 370.746 311.984 370.75 313.347C373.162 315.942 378.334 317.154 381.792 317.383C387.2 317.742 396.066 315.646 400.229 311.942C401.154 311.12 400.892 311.523 401.185 310.435C398.659 309.38 395.426 309.465 392.71 309.203L394.139 308.406C401.976 305.669 408.807 302.765 415.836 298.324L415.055 298.506C407.156 300.309 399.991 298.913 392.484 296.285C401.874 295.149 410.309 294.904 418.498 289.599L417.989 289.573C414.332 289.332 410.661 288.37 407.105 287.52C406.31 287.33 404.753 287.175 404.214 286.575L415.489 279.709C398.301 282.208 379.716 286.037 363.024 279.198ZM452.501 739.838L444.622 753.613C470.208 761.29 497.19 770.385 520.2 784.189L522.75 785.867C524.593 784.353 525.75 780.851 526.443 778.619C509.695 764.143 491.333 754.223 470.751 746.328C464.76 744.03 458.361 742.416 452.501 739.838ZM427.565 782.955C424.382 787.748 421.083 792.352 418.733 797.628L451.938 810.159C469.202 817.571 486.64 827.641 500.823 840.004L503.805 842.302C505.303 839.613 506.484 837.035 507.498 834.128C483.478 813.136 454.81 799.099 427.565 782.955ZM786.865 637.106C765.407 641.908 743.904 647.334 723.387 655.331C717.42 657.656 711.427 659.881 705.944 663.24L743.102 655.496C752.635 653.302 762.652 650.63 772.407 649.835L792.387 646.862C782.688 651.223 773.164 657.269 764.461 663.377L822.416 647.728C816.25 645.092 792.555 635.765 786.865 637.106ZM835.841 657.15C827.261 658.351 818.85 659.675 810.438 661.775C806.513 662.754 802.495 663.644 798.824 665.386C798.725 666.235 798.924 666.533 799.25 667.302C802.656 667.749 806.105 666.819 809.5 666.498C814.296 666.044 819.179 665.912 823.989 666.091L798.708 674.814C796.621 675.617 792.395 676.765 791.167 678.5L791.5 679.3C794.263 679.728 797.041 679.093 799.776 678.676L811.383 677.109C825.793 675.376 840.29 674.659 854.72 676.741C862.595 677.877 870.641 679.989 878.392 681.822C876.83 680.062 875.301 678.191 873.353 676.846C865.755 671.601 857.224 667.806 849.073 663.525C844.809 661.286 840.769 657.61 835.841 657.15ZM449.703 134.25C438.221 150.322 421.197 163.361 401.438 166.623C395.009 167.684 388.291 167.481 381.789 167.484L388.308 173.17C396.053 177.951 404.342 179.557 413.287 177.465C425.166 174.685 434.421 164.232 440.511 154.179C444.461 147.658 447.868 141.55 450.361 134.33L449.703 134.25ZM518.666 95.2091L492.173 100.141C499.138 101.096 506.422 100.135 513.459 100.673C535.032 102.323 558.202 110.152 571.745 127.935L575.473 133.539C577.038 136.331 578.556 139.114 579.736 142.096C580.923 145.094 581.59 148.394 583.495 151.031L582.675 142.25C580.316 128.764 573.979 117.505 562.834 109.288C550.644 100.301 533.999 94.0249 518.713 95.1935L518.666 95.2091ZM364.984 600.25L320.641 615.053L306.028 619.922C304.497 620.479 302.985 620.702 301.975 622L302.25 623.27C304.382 623.626 306.266 623.365 308.378 623.087L347.215 618.358L361.75 616.507C364.817 616.136 367.962 616.089 370.946 615.248C369.763 610.578 368.524 604.358 366.188 600.185L364.984 600.25ZM618.678 774.75L608.73 778.286L583.271 862.185L583.75 862.008L603.012 823.118C609.781 807.617 615.063 791.752 619.331 775.4C619.12 775.177 618.941 774.909 618.678 774.75ZM641.733 181.129C633.105 182.331 625.947 185.973 619.496 191.72C631.624 189.201 641.495 187.323 653.509 191.485C641.959 195.168 633.497 199.639 624.861 208.324C626.563 208.035 628.063 207.762 629.647 207.062C639.879 202.845 650.805 198.834 662.086 199.844C666.844 200.27 671.418 201.784 675.869 203.459C671.889 193.847 665.605 187.877 655.97 183.877C651.623 182.072 646.475 180.661 641.733 181.129ZM442.545 761.124L469.325 777.261C473.956 780.091 478.834 784.121 483.828 786.102C487.375 787.508 491.294 788.314 494.939 789.502C502.917 792.101 510.61 794.963 518.25 798.444L519.25 797.188C520.031 795.513 520.406 794.995 520.25 793.113C513.286 787.645 504.675 783.637 496.652 780.02C479.378 772.233 460.913 765.804 442.545 761.124ZM555.745 98.25C556.783 99.6142 558.312 100.309 559.707 101.256L567.708 106.68C581.487 115.99 594.278 127.901 601.658 142.984C603.349 146.442 604.212 150.366 606.004 153.775C606.082 138.633 605.278 125.79 593.959 114.437C585.107 105.558 570.11 98.7246 557.5 98.0611C556.893 98.0291 556.337 98.1374 555.745 98.25ZM177.36 724.033C174.796 727.114 171.984 730.215 169.796 733.572C159.15 749.909 151.941 773.541 153.732 793.161L156.641 811.407L157.25 813.044C158.957 810.306 158.727 802.778 159.121 799.241L161.497 782.812C163.321 771.098 165.529 759.329 169.06 748L177.36 724.033ZM857.041 731.359L874.875 816.998L875.548 816.75C875.978 807.393 876.425 798.052 875.647 788.691C874.019 769.11 867.656 747.884 857.041 731.359ZM582.13 776.261L581.964 774.987C584.942 767.216 585.806 759.158 587.661 751.093L598.628 701.553C599.32 697.712 600.819 692.576 600.25 688.745C599.104 688.926 599.157 688.697 598.366 689.706C596.128 692.558 594.863 696.886 593.724 700.29C588.542 715.784 586.148 732.115 583.344 748.163C581.68 757.689 579.199 767.823 579.09 777.497C580.229 777.47 581.14 776.792 582.13 776.261ZM377.501 367.21C377.976 373.571 378.362 380.541 380.294 386.653C383.672 397.337 390.428 407.008 398.818 414.414C402.299 417.487 407.697 419.858 412.156 421.057L412.25 420.048C408.851 413.613 404.13 408.442 399.214 403.139C395.946 399.613 392.213 395.886 389.815 391.688C386.354 385.631 385.749 380.282 386.466 373.454C386.549 372.665 386.946 370.397 386.816 370.286C385.81 369.425 381.788 368.573 380.343 368.127L377.501 367.21ZM587.763 550.613L583.05 551.626C582.48 554.521 594.78 577.181 597.389 580.976L599.25 583.442C600.334 582.715 600.557 581.371 601.034 580.172L607.799 560.488C604.369 556.546 598.523 550.857 593 550.491L587.763 550.613ZM259.731 636.025C249.586 640.02 239.073 643.461 229.5 648.716C229.15 649.792 229.169 649.236 229.5 650.384C232.629 650.803 236.464 650.055 239.632 649.641C244.908 648.953 250.05 648.294 255.375 648.053C266.073 647.758 277.359 648.643 287.947 647.348C281.189 643.621 274.434 640.789 267.25 638.049C264.959 637.175 262.225 635.593 259.731 636.025ZM665.677 370.75L664.578 371.516C663.877 376.296 663.703 381.573 662.12 386.136C657.021 400.841 639.911 407.242 634.949 422.191L638.689 420.684C653.596 413.01 663.645 401.237 668.732 385.15C669.855 381.596 672.236 374.019 670.75 370.509C668.955 370.396 667.451 370.438 665.677 370.75ZM418.999 842.829C430.404 852.113 443.597 858.715 455.56 867.152L465.408 874.554C467.335 876.152 470.499 879.494 472.901 880.216C475.47 880.989 481.054 879.952 483.8 879.79C473.687 871.298 462.458 864.245 451.085 857.566C441.12 851.715 430.329 845.473 418.999 842.829ZM684.225 241.75C674.831 248.331 659.942 249.961 648.814 247.966C643.24 246.967 638.614 245.116 633.593 242.538L638.386 249.366C643.946 254.755 649.863 257.612 657.75 257.498C665.03 257.392 677.381 254.151 682.44 248.75C684.288 246.776 684.612 244.601 684.848 242.023L684.225 241.75ZM633.698 271.418C635.004 273.679 636.301 275.974 637.83 278.091C639.073 279.812 642.487 282.635 642.97 284.388L642.344 284.264C641.46 284.115 640.643 284.114 639.75 284.123L639.657 286.366C642.002 288.709 647.338 289.456 650.587 289.46C657.933 289.469 665.964 288.637 672.848 286.02C675 285.177 677.908 284.429 679.522 282.75C678.89 281.87 678.778 281.868 677.742 281.665C675.203 281.17 672.407 281.514 669.815 281.246C657.774 280.002 644.246 277.711 633.698 271.418ZM811.678 695.218C787.113 696.692 759.346 700.949 737.988 713.968L737.582 714.75L738 715.255L740.208 715.272L812.869 695.802C813.728 695.612 813.412 695.703 814.25 695.141L811.678 695.218ZM650.075 293.629C651.368 294.629 652.126 294.913 652.62 296.5C652.215 297.68 651.926 298.842 651.053 299.772L652.25 301.239L651.25 301.663C650.749 302.988 650.728 302.952 651.212 304.279C658.701 308.918 666.435 307.857 674.606 306.125L657.303 301.576C661.253 301.589 665.042 301.141 668.916 300.372C675.88 298.991 681.077 295.239 684.954 289.373C673.141 291.972 662.169 293.057 650.075 293.629ZM584.754 803.545L571.851 831.387C569.781 835.79 566.649 840.783 565.482 845.418C567.507 844.976 568.002 842.52 570.017 843.739L571.445 844.671C574.059 842.219 576.308 837.025 578.149 833.855L579.339 831.678L591.344 807.929C590.177 807.383 589.761 807.465 588.5 807.468C586.304 806.205 586.017 805.765 584.754 803.545ZM461.305 727.314C459.704 729.532 457.316 732.19 456.281 734.674L500.075 749.938L502.25 750.441L502.75 750.232C499.275 746.96 494.758 744.4 490.693 741.92C481.651 736.403 471.796 730.766 461.713 727.477L461.305 727.314ZM383.12 854.75L380.077 860.77L392.606 873.322C394.888 875.685 397.223 878.616 399.84 880.543L410.191 880.277L411.882 880.25C411.562 878.469 387.591 857.682 384.584 855.423C383.863 854.883 384.08 855.047 383.12 854.75ZM644.603 164.28C636.852 167.434 631.599 174.401 627.308 181.294C632.63 177.564 638.828 175.631 645.122 174.179C653.398 172.747 658.294 173.22 666.476 175.505C664.285 172.79 662.294 170.438 659.564 168.25L659.011 167.783C655.098 164.554 649.47 164.07 644.603 164.28ZM284.258 626.418L277.016 630.8L324.831 651.205C326.663 652.033 328.329 652.72 330.294 653.156C317.175 641.691 300.403 632.776 284.258 626.418ZM407.805 814.354L402.084 824.645C405.242 826.185 409.173 826.941 412.569 827.885L431.627 833.051C433.14 833.455 435.168 834.29 436.663 833.75C434.495 831.385 431.63 829.531 429.042 827.644C422.122 822.598 415.173 818.632 407.805 814.354ZM550.933 676.25L555.552 710.543L559.539 702.385C561.446 697.466 563.799 692.709 565.189 687.608C565.563 686.235 566.284 684.317 566.109 682.928C560.98 681.848 556.606 680.529 552.493 677.08C551.998 676.665 551.541 676.452 550.933 676.25ZM613.284 502.163L599.377 529.103L604.732 533.242C606.727 534.673 609.222 536.917 611.443 537.845L613.284 502.163ZM409.252 268.126C398.256 270.119 386.947 271.408 375.75 270.328C371.469 269.915 367.203 268.844 362.983 268.021C365.627 269.989 368.075 271.784 371.116 273.106C382.363 277.074 397.364 277.881 408.371 272.799C410.311 271.904 412.481 270.866 413.258 268.75C412.994 268.135 413.151 268.127 412.531 267.942C411.455 267.62 410.331 267.934 409.252 268.126ZM437.332 765.969L430.671 777.033L455.379 780.212L460.165 780.567L437.332 765.969ZM639.745 305.25C640.077 308.157 644.015 311.515 646.25 313.281C651.562 317.477 658.424 319.923 665.203 319.008C669.583 318.416 673.135 317.619 677.068 315.456L678.929 314.25L678.5 313.64C671.748 314.11 665.473 314.958 658.75 313.662L658.008 313.525C654.625 312.863 650.918 311.212 647.932 309.49C646.166 308.472 642.67 305.11 640.781 304.919C640.42 304.883 640.09 305.14 639.745 305.25ZM597.488 731.183L589.736 768.02L595.048 765.512L597.416 763.75C595.937 760.041 595.388 757.102 595.181 753.123C597.345 749.755 600.996 745.601 602.346 741.922C600.925 738.156 599.321 734.759 597.488 731.183ZM640.447 319.865C644.12 324.35 647.779 328.754 654 329.417C656.56 329.69 659.484 329.644 662 329.107L662.646 328.972C665.128 328.401 667.458 327.087 669.722 325.95L671.929 324.25L671.846 323.189C668.964 322.849 666.271 323.605 663.406 323.785C655.149 324.305 648.136 322.708 640.447 319.865ZM419.635 666.75L415.066 670.578C416.194 671.676 417.381 672.878 418.752 673.667C422.337 675.729 429.434 678.191 431.094 682.279C431.394 683.018 431.336 684.513 431.437 685.35C431.741 687.858 431.999 690.446 432.525 692.916L437.243 681.372C433.812 678.981 429.773 676.769 426.691 673.969C424.231 671.733 422.361 668.641 419.635 666.75ZM402.807 318.75C394.721 321.269 386.697 322.148 378.254 321.597C375.872 321.441 371.795 320.226 369.624 320.75C370.139 321.995 371.22 322.299 372.353 322.972C379.85 326.652 385.991 327.59 393.955 324.925C397.923 323.597 400.991 321.766 404 318.873C403.396 318.545 403.777 318.667 402.807 318.75ZM586.593 800.121L589.479 800.169C590.876 800.323 592.552 801.896 593.64 802.761L601.043 784.411L595.059 786.924C590.255 789.433 588.155 795.181 586.593 800.121ZM622.188 682.605C619.321 685.234 616.513 688.129 613.519 690.594C611.401 692.337 608.625 693.545 606.725 695.496C605.697 696.552 605.683 697.11 605.474 698.5C606.152 699.752 606.674 700.516 607.75 701.493L608.792 700.75C609.264 698.036 611.598 696.167 613.75 694.657C617.353 692.129 621.956 690.217 626.073 688.683C624.628 686.711 623.23 684.832 622.188 682.605ZM565.482 845.418C561.489 851.637 558.804 859.435 556.287 866.357C561.699 859.388 567.189 852.427 571.445 844.671L570.017 843.739C568.002 842.52 567.507 844.976 565.482 845.418ZM639.089 151.088C637.054 153.797 634.59 156.826 633.443 160.047L643.892 156.947L653.878 154.213L639.089 151.088ZM390.96 192.25L390.825 193.25C399.244 197.573 413.034 197.098 421.857 194.323L423.343 193.806L424.304 193.469L424.876 193.25L426.297 192.75L426.25 192.116C418.521 192.706 410.97 194.094 403.176 193.808C399.061 193.657 394.953 192.331 390.96 192.25ZM443.694 717.25C441.466 720.307 438.588 725.373 439.076 729.256C439.234 730.514 439.71 731.758 440.139 732.945L440.862 733.064L441.25 732.507C442.231 730.831 443.211 729.183 444.446 727.678C444.896 727.129 446.508 725.609 446.697 725.054C446.95 724.309 445.463 718.703 445.25 717.609C444.65 717.374 444.351 717.247 443.694 717.25ZM639.197 672.899C635.718 676.804 631.79 680.293 632.137 685.883L633.158 695.051C636.145 687.926 638.106 680.547 639.197 672.899ZM426.851 706.058L425.03 713.467C428.45 716.272 431.579 718.322 435.75 719.883L436.948 718.75C436.202 716.071 432.688 713.994 430.859 711.79C429.364 709.987 428.168 707.985 426.851 706.058ZM610.303 741.612C606.494 744.919 600.694 749.319 599.705 754.5L600 755.288C601.231 755.593 601.207 755.413 602.316 754.75L608.521 749.618L609.183 750L609.348 751C610.608 748.361 610.431 744.49 610.303 741.612ZM621.361 733.998C619.775 737.304 618.284 740.735 616.25 743.793L615.651 743.25L615.918 741.25L615.5 740.941C614.446 742.759 614.687 746.562 614.517 748.733L615.077 750.89C616.5 750.61 618.907 749.018 619.807 747.877C622.227 744.811 621.504 737.624 621.361 733.998ZM439.944 699.75C437.671 702.544 435.747 706.849 434.691 710.298L437.75 713.475L438.546 713.559C441.333 709.474 442.619 705.115 441.75 700.195L441.214 699.481L439.944 699.75ZM432.571 724.75C431.808 728.938 431.431 733.111 432.763 737.253C433.732 737.959 435.766 739.869 436.924 739.625L437.718 739.25L438.523 738.25C437.855 734.191 435.029 728.172 432.743 724.796L432.571 724.75ZM416.745 679.25L416.75 681.255C419.622 683.821 422.437 685.573 425.032 688.5L427.005 690.689L427.461 690.25C427.691 688.215 427.862 686.29 427.736 684.242C424.669 682.074 421.525 679.636 417.781 678.86L416.745 679.25ZM418.784 722.104C419.545 726.689 420.531 731.264 423.75 734.82C425.059 734.824 425.024 734.65 426.007 733.75C426.594 732.172 427.159 731.193 426.459 729.5C425.07 726.139 421.695 724.02 418.784 722.104ZM586.593 800.121C585.928 801.249 585.237 802.324 584.754 803.545C586.017 805.765 586.304 806.205 588.5 807.468C589.761 807.465 590.177 807.383 591.344 807.929C591.75 807.726 593.325 803.492 593.64 802.761C592.552 801.896 590.876 800.323 589.479 800.169L586.593 800.121ZM424.818 693.75C424.302 695.929 424.113 696.548 425.357 698.537C426.789 700.829 429.407 705.118 431.75 706.417C432.319 702.1 432.059 700.239 429.269 696.712C428.095 695.228 426.95 694.031 425.001 693.763L424.818 693.75ZM401.669 656.545C402.788 661.866 403.793 668.569 406.25 673.379L407.755 672.75C408.586 670.604 408.878 668.035 407.996 665.836C406.679 662.548 403.845 659.309 401.669 656.545ZM629.534 709.25C625.116 713.711 623.53 717.602 622.604 723.805C626.766 720.406 629.384 717.695 629.951 712C630.034 711.172 629.971 710.325 629.891 709.5L629.534 709.25ZM447.245 694.75C446.892 699.276 448.867 704.894 450.25 709.189L451.755 708.75C452.64 704.542 451.064 699.248 449.625 695.25C448.7 694.459 448.416 694.727 447.245 694.75ZM651.053 299.772C651.926 298.842 652.215 297.68 652.62 296.5C652.126 294.913 651.368 294.629 650.075 293.629C647.415 293.604 644.669 293.412 642.046 293.897L651.053 299.772ZM443.245 677.25C443.086 681.66 444.527 687.328 446.25 691.379C446.782 691.021 447.295 690.71 447.75 690.255C448.26 686.094 446.341 681.562 444.535 677.911L444.245 677.25L443.64 677.405L443.245 677.25ZM418.206 695.25L417.467 695.551C416.407 695.918 415.759 695.861 414.672 695.75C415.061 697.693 416.725 700.142 417.918 701.75L419 703.041C419.842 702.773 419.886 702.987 420.17 702.294C420.923 700.453 420.551 697.081 419.75 695.293L418.206 695.25ZM160.002 699.637C156.957 700.222 154.397 700.978 151.577 702.271L150.199 706.25C151.29 706.46 150.768 706.546 151.756 705.944C153.607 704.81 161.85 700.793 162.419 699.566C161.496 699.483 160.938 699.484 160.002 699.637ZM601.681 719.25C600.604 721.054 600.344 722.418 600.187 724.5C601.257 725.861 601.267 725.857 602.955 726.25C604.108 724.955 604.228 723.763 604.221 722L603.824 719.104C602.912 718.957 602.557 719.039 601.681 719.25ZM624.276 701.25C624.005 702.831 623.79 704.33 623.75 705.934C624.881 705.754 625.631 705.618 626.598 704.989L629.187 701.25C628.016 700.532 625.692 701.109 624.276 701.25Z"/>
	<path fill="#DBDBDB" fill-opacity="0.98039216" transform="scale(0.25 0.25)" d="M651.053 299.772L642.046 293.897C644.669 293.412 647.415 293.604 650.075 293.629C651.368 294.629 652.126 294.913 652.62 296.5C652.215 297.68 651.926 298.842 651.053 299.772Z"/>
	<path fill="#DBDBDB" transform="scale(0.25 0.25)" d="M404.502 260.25C405.384 260.049 405.517 259.842 406.362 260.25C403.076 263.186 398.466 265.113 394.161 266.015C392.531 266.356 390.808 266.871 389.395 265.926L386.131 265.327L404.502 260.25Z"/>
	<path fill="#DBDBDB" transform="scale(0.25 0.25)" d="M616.595 717.75L617.343 717.844C616.924 720.905 615.87 723.686 614.623 726.486C611.369 727.846 608.499 730.003 605.25 731.164C604.163 730.45 604.507 730.935 604.162 729.75L604.677 729.453L605.5 728.963C609.511 726.718 614.262 721.756 616.595 717.75Z"/>
	<path fill="#DBDBDB" fill-opacity="0.89019608" transform="scale(0.25 0.25)" d="M586.593 800.121L589.479 800.169C590.876 800.323 592.552 801.896 593.64 802.761C593.325 803.492 591.75 807.726 591.344 807.929C590.177 807.383 589.761 807.465 588.5 807.468C586.304 806.205 586.017 805.765 584.754 803.545C585.237 802.324 585.928 801.249 586.593 800.121Z"/>
	<path fill="#DBDBDB" transform="scale(0.25 0.25)" d="M625.812 693.25L626.749 693.328L626.936 694.25C625.221 696.721 622.836 698.082 620.579 699.984C618.465 701.765 616.615 703.82 614.75 705.854L614.202 705.526C613.4 703.715 613.716 701.622 613.793 699.685C616.782 696.736 621.908 694.702 625.812 693.25Z"/>
	<path fill="#DBDBDB" transform="scale(0.25 0.25)" d="M615.359 726.75C616.062 726.655 616.405 726.748 617.082 726.913C617.885 728.406 618.07 728.736 618.05 730.5C615.934 733.438 611.206 735.097 608.259 737.439L607.75 737.852L606.492 738.67C605.808 737.875 605.495 736.833 605.511 735.75C605.512 735.644 605.609 734.613 605.75 734.418C606.211 733.778 607.782 732.994 608.5 732.456C610.888 730.665 613.154 728.76 615.359 726.75Z"/>
	<path fill="#DBDBDB" transform="scale(0.25 0.25)" d="M694.036 712.25L694.792 712.299L694.872 712.75C688.742 717.64 681.095 721.207 674 724.482L652.133 733.995C654.095 731.642 657.973 729.906 660.648 728.413C671.348 722.438 682.741 716.996 694.036 712.25Z"/>
	<path fill="#DBDBDB" fill-opacity="0.98039216" transform="scale(0.25 0.25)" d="M584.754 803.545C586.017 805.765 586.304 806.205 588.5 807.468C589.761 807.465 590.177 807.383 591.344 807.929L579.339 831.678L578.149 833.855C576.308 837.025 574.059 842.219 571.445 844.671L570.017 843.739C568.002 842.52 567.507 844.976 565.482 845.418C566.649 840.783 569.781 835.79 571.851 831.387L584.754 803.545ZM578.149 833.855L579.339 831.678C578.333 829.997 577.494 828.201 575.7 827.25C575.011 827.834 574.629 828.311 574.536 829.25C574.445 830.165 574.597 831.158 575.26 831.79C576.097 832.588 576.884 832.991 577.839 833.612L578.149 833.855Z"/>
	<path fill="#DBDBDB" fill-opacity="0.94117647" transform="scale(0.25 0.25)" d="M578.149 833.855L577.839 833.612C576.884 832.991 576.097 832.588 575.26 831.79C574.597 831.158 574.445 830.165 574.536 829.25C574.629 828.311 575.011 827.834 575.7 827.25C577.494 828.201 578.333 829.997 579.339 831.678L578.149 833.855Z"/>
	<path fill="#DBDBDB" transform="scale(0.25 0.25)" d="M581.964 774.987L582.831 774.709C589.839 772.393 596.882 768.469 603.628 765.402C606.116 764.272 608.82 762.691 611.493 762.193L611.565 762.788C612.777 762.947 613.135 763.056 614.25 762.605L614.225 761.75L613.114 761.433C617.384 758.416 623.521 756.378 628.335 754.202L659.555 740.056L708.919 717.732C717.228 713.988 725.492 709.726 734.047 706.582C730.517 709.559 726.338 713.128 722 714.801L721.5 714.208C720.184 714.298 720.212 714.33 719.255 715.25L720.447 715.512C719.944 716.547 715.935 718.392 714.738 719.068C683.004 736.979 647.877 749.202 614.307 763.222L593.128 772.041C590.017 773.316 586.816 774.896 583.623 775.914L582.13 776.261L581.964 774.987Z"/>
	<path fill="#DBDBDB" fill-opacity="0.88235295" transform="scale(0.25 0.25)" d="M463.793 195.59C464.863 192.567 466.3 188.702 468.319 186.204C466.855 195.979 465.188 206.215 466.893 216.082C465.285 215.476 465.806 214.496 464.25 213.745C463.124 212.368 463.088 208.024 463.345 206.26L463.755 203.75L464.015 202C464.059 201.29 463.915 200.985 464.298 200.325C464.584 199.831 464.98 199.309 465.128 198.75C465.34 197.945 465.495 196.297 465 195.62L463.793 195.59Z"/>
	<path fill="#DBDBDB" transform="scale(0.25 0.25)" d="M464.291 574.75C467.82 573.989 473.247 574.799 476.303 576.672C473.035 579.946 467.524 583.005 465.593 587.298L465.342 587.888C464.096 590.573 463.753 592.473 463.999 595.393C464.56 602.049 467.635 608.677 469.135 615.189C470.776 622.312 471.527 629.58 473.283 636.658C473.436 637.87 473.72 638.825 473.25 639.985C467.21 631.806 463.231 621.057 460.072 611.446C458.389 606.328 456.804 601.389 455.809 596.078C455.323 593.484 455.131 590.145 455.632 587.547C456.536 582.864 460.278 577.366 464.291 574.75Z"/>
	<path fill="#DBDBDB" fill-opacity="0.95294118" transform="scale(0.25 0.25)" d="M511.225 379.597L512.75 377.758C513.846 382.033 513.878 387.329 513.988 391.741L514.189 410.489C514.163 414.251 514.694 419.136 513.005 422.582L512.244 423.463C511.183 422.585 510.478 421.826 510.08 420.474C507.858 412.928 508.863 402.987 508.909 395.132C508.93 391.659 508.562 387.553 509.217 384.159C509.534 382.518 510.402 381.032 511.225 379.597ZM511.225 379.597C510.402 381.032 509.534 382.518 509.217 384.159C508.562 387.553 508.93 391.659 508.909 395.132C508.863 402.987 507.858 412.928 510.08 420.474C510.478 421.826 511.183 422.585 512.244 423.463L513.005 422.582C512.147 421.647 512.358 420.183 511.903 418.983C511.278 417.333 510.788 413.742 511.523 412.116L511.75 411.755C510.993 410.905 511.273 409.623 511.255 408.5C512.101 407.227 511.753 405.412 511.755 403.892L511.769 394.25L511.25 395L511.221 393.075C511.268 390.411 510.64 387.687 511.206 385.062C511.693 382.806 512.153 381.745 511.225 379.597Z"/>
	<path fill="#DBDBDB" fill-opacity="0.97254902" transform="scale(0.25 0.25)" d="M511.225 379.597C512.153 381.745 511.693 382.806 511.206 385.062C510.64 387.687 511.268 390.411 511.221 393.075L511.25 395L511.769 394.25L511.755 403.892C511.753 405.412 512.101 407.227 511.255 408.5C511.273 409.623 510.993 410.905 511.75 411.755L511.523 412.116C510.788 413.742 511.278 417.333 511.903 418.983C512.358 420.183 512.147 421.647 513.005 422.582L512.244 423.463C511.183 422.585 510.478 421.826 510.08 420.474C507.858 412.928 508.863 402.987 508.909 395.132C508.93 391.659 508.562 387.553 509.217 384.159C509.534 382.518 510.402 381.032 511.225 379.597Z"/>
	<path fill="#DBDBDB" transform="scale(0.25 0.25)" d="M496.932 480.041C500.276 479.357 505.389 481.026 508.884 481.437L526.699 482.901C534.435 483.263 542.33 482.141 550.028 481.448C553.574 481.129 557.388 480.558 560.937 480.821C564.278 481.069 567.189 482.799 570.1 484.311L558.941 485.671C545.354 488.019 532.662 490.343 518.814 488.911C507.63 487.755 496.942 485.38 485.63 484.823L496.932 480.041Z"/>
	<path fill="#DBDBDB" transform="scale(0.25 0.25)" d="M410.473 381.727C420.373 393.733 433.031 403.662 442.517 416.034C448.297 423.572 452.1 431.62 455.487 440.443C450.53 436.829 445.501 433.305 441.046 429.066C431.452 419.939 423.936 408.647 417.329 397.25C414.552 392.459 412.642 386.837 410.473 381.727Z"/>
	<path fill="#DBDBDB" fill-opacity="0.97254902" transform="scale(0.25 0.25)" d="M634.242 387.75L634.556 388.312C633.781 393.745 631.517 398.516 629.243 403.446C621.385 420.49 610.01 435.749 599.19 451.033C598.961 425.342 617.874 405.478 634.242 387.75Z"/>
	<path fill="#DBDBDB" transform="scale(0.25 0.25)" d="M434.461 320.557L473.693 336.475C480.898 339.33 488.737 341.44 495.75 344.63C496.936 345.169 497.91 345.806 498.826 346.737C505.938 353.962 505.361 365.567 505.519 374.874C503.736 373.23 502.699 370.547 501.103 368.636C496.912 363.617 491.938 360.067 486.569 356.431L482.996 353.805C480.916 356.007 478.733 358.672 476.073 360.155L475.5 360.463C473.241 361.691 471.218 362.103 468.75 362.605C465.917 363.182 463.402 362.711 460.688 361.75C454.302 359.488 451.177 351.538 448.368 345.891L436.75 349.34L436.04 348.75C435.888 346.497 436.147 344.748 437.564 342.906C440.482 339.113 447.107 338.494 451.477 338.136L424.268 327.646L434.461 320.557Z"/>
	<path fill="#DBDBDB" transform="scale(0.25 0.25)" d="M614.217 320.75L615.507 320.511C619.888 322.119 623.478 325.09 627.072 327.976C618.631 331.222 609.701 335.403 601.002 337.701C605.458 338.358 611.851 338.273 615.107 341.75C617.344 344.139 617.109 346.222 616.969 349.25C614.812 349.817 611.174 347.625 608.944 346.92C607.295 346.399 605.524 346.151 603.82 345.872C601.971 350.191 599.802 355.843 596.193 358.944C592.426 362.181 586.846 363.218 582 362.466C577.674 361.795 574.184 358.499 571.764 355.044L571.482 354.632C569.803 355.619 568.299 356.708 566.773 357.917C562.797 360.805 558.533 363.614 555.104 367.149L554.396 367.887C552.18 370.17 550.807 373.098 549.302 375.876C549.354 372.478 549.37 369.043 549.769 365.664C550.134 362.579 551.791 358.615 551.408 355.65L548.5 356.245L548.012 355.75L548.183 355.261C549.389 352.509 552.037 350.159 554.122 348.042C557.048 345.073 560.177 341.451 563.752 339.277C567.966 336.715 574.141 335.286 578.824 333.577L614.217 320.75Z"/>
</svg>
